<svg id="Capa_1" fill="#fff" enable-background="new 0 0 512.039 512.039" height="512" viewBox="0 0 512.039 512.039" width="512" xmlns="http://www.w3.org/2000/svg"><g><path d="m39.333 262.84h-39.333v221.227h39.333c15.966 0 29.916-8.753 37.333-21.706v-177.816c-7.417-12.953-21.367-21.705-37.333-21.705z"/><path d="m501.974 290.584c-7.103-7.995-16.896-12.714-27.574-13.287-10.684-.575-20.921 3.071-28.839 10.262l-70.141 63.701c-3.587 31.869-30.691 56.724-63.502 56.724h-95.364v-30h94.691c18.607 0 34.539-15.216 34.591-33.822.04-14.51-9.083-26.928-21.895-31.801-1.899-.722-3.926-1.079-5.957-1.081-.012 0-.023 0-.035 0h-80.88c-19.562-19.866-46.263-31.129-74.31-31.129-20.099 0-39.506 5.789-56.091 16.379v164.33l65.479 22.131h185.208l142.496-137.422c15.391-14.846 16.324-38.997 2.123-54.985z"/><path d="m284.877 27.973h33.79v65.555h-33.79z"/><path d="m411.72 27.973h-63.053v95.555h-93.79v-95.555h-63.053v219.895h219.896z"/></g></svg>